HIERARCHY
ROOT hip
{
  OFFSET 0.00112043 5.09927 -9.65472
  CHANNELS 6 Xposition Yposition Zposition Zrotation Xrotation Yrotation
  JOINT abdomen
  {
    OFFSET 0 -1.186 -1.5018
    CHANNELS 3 Zrotation Xrotation Yrotation
    JOINT abdomen2
    {
      OFFSET 0 9.964 0.2134
      CHANNELS 3 Zrotation Xrotation Yrotation
      JOINT chest
      {
        OFFSET 0 13.134 -3.2573
        CHANNELS 3 Zrotation Xrotation Yrotation
        JOINT neck
        {
          OFFSET 0 20.686 -1.6905
          CHANNELS 3 Zrotation Xrotation Yrotation
          JOINT head
          {
            OFFSET 0 7.238 -0.1237
            CHANNELS 3 Zrotation Xrotation Yrotation
            End Site
            {
              OFFSET 0 0 0
            }
          }
        }
        JOINT lCollar
        {
          OFFSET 1.7069 20.075 5.0056
          CHANNELS 3 Zrotation Xrotation Yrotation
          JOINT lShldr
          {
            OFFSET 13.6458 -0.047 -4.849
            CHANNELS 3 Zrotation Xrotation Yrotation
            JOINT lForeArm
            {
              OFFSET 28.3255 -0.9759 2.2888
              CHANNELS 3 Zrotation Xrotation Yrotation
              JOINT lHand
              {
                OFFSET 22.1583 -0.53 10.8316
                CHANNELS 3 Zrotation Xrotation Yrotation
                JOINT lThumb1
                {
                  OFFSET 0.786 0.112 2.5817
                  CHANNELS 3 Zrotation Xrotation Yrotation
                  JOINT lThumb2
                  {
                    OFFSET 0.3601 -0.878 4.2331
                    CHANNELS 3 Zrotation Xrotation Yrotation
                    JOINT lThumb2_End
                    {
                      OFFSET 1.8127 -1.216 2.2227
                      CHANNELS 3 Zrotation Xrotation Yrotation
                      End Site
                      {
                        OFFSET 0.0181 -0.0122 0.0222
                      }
                    }
                  }
                }
                JOINT lCarpal1
                {
                  OFFSET 0.9571 1.114 1.7695
                  CHANNELS 3 Zrotation Xrotation Yrotation
                  JOINT lIndex1
                  {
                    OFFSET 4.1246 0.487 4.1451
                    CHANNELS 3 Zrotation Xrotation Yrotation
                    JOINT lIndex2
                    {
                      OFFSET 3.4052 -1.454 2.7682
                      CHANNELS 3 Zrotation Xrotation Yrotation
                      JOINT lIndex2_End
                      {
                        OFFSET 1.4531 -1.795 1.2713
                        CHANNELS 3 Zrotation Xrotation Yrotation
                        End Site
                        {
                          OFFSET 0.0145 -0.0179 0.0127
                        }
                      }
                    }
                  }
                  JOINT lMid1
                  {
                    OFFSET 5.6954 0.21 2.1184
                    CHANNELS 3 Zrotation Xrotation Yrotation
                    JOINT lMid2
                    {
                      OFFSET 3.9766 -1.54 2.3863
                      CHANNELS 3 Zrotation Xrotation Yrotation
                      JOINT lMid2_End
                      {
                        OFFSET 1.4042 -1.926 1.125
                        CHANNELS 3 Zrotation Xrotation Yrotation
                        End Site
                        {
                          OFFSET 0.014 -0.0193 0.0113
                        }
                      }
                    }
                  }
                }
                JOINT lCarpal2
                {
                  OFFSET 2.0956 0.66 -0.3894
                  CHANNELS 3 Zrotation Xrotation Yrotation
                  JOINT lRing1
                  {
                    OFFSET 5.0395 -0.09 2.4971
                    CHANNELS 3 Zrotation Xrotation Yrotation
                    JOINT lRing2
                    {
                      OFFSET 3.7921 -1.552 1.4806
                      CHANNELS 3 Zrotation Xrotation Yrotation
                      JOINT lRing2_End
                      {
                        OFFSET 1.4655 -1.808 0.9609
                        CHANNELS 3 Zrotation Xrotation Yrotation
                        End Site
                        {
                          OFFSET 0.0147 -0.0181 0.0096
                        }
                      }
                    }
                  }
                  JOINT lPinky1
                  {
                    OFFSET 4.9141 -1.269 0.3591
                    CHANNELS 3 Zrotation Xrotation Yrotation
                    JOINT lPinky2
                    {
                      OFFSET 3.1477 -1.685 0.8462
                      CHANNELS 3 Zrotation Xrotation Yrotation
                      JOINT lPinky2_End
                      {
                        OFFSET 0.8055 -1.585 0.7955
                        CHANNELS 3 Zrotation Xrotation Yrotation
                        End Site
                        {
                          OFFSET 0.0081 -0.0158 0.008
                        }
                      }
                    }
                  }
                }
              }
            }
          }
        }
        JOINT rCollar
        {
          OFFSET -1.7069 20.075 5.0056
          CHANNELS 3 Zrotation Xrotation Yrotation
          JOINT rShldr
          {
            OFFSET -13.6458 -0.047 -4.849
            CHANNELS 3 Zrotation Xrotation Yrotation
            JOINT rForeArm
            {
              OFFSET -28.3255 -0.9759 2.2888
              CHANNELS 3 Zrotation Xrotation Yrotation
              JOINT rHand
              {
                OFFSET -22.1583 -0.53 10.8316
                CHANNELS 3 Zrotation Xrotation Yrotation
                JOINT rThumb1
                {
                  OFFSET -0.786 0.112 2.5817
                  CHANNELS 3 Zrotation Xrotation Yrotation
                  JOINT rThumb2
                  {
                    OFFSET -0.3601 -0.878 4.2331
                    CHANNELS 3 Zrotation Xrotation Yrotation
                    JOINT rThumb2_End
                    {
                      OFFSET -1.8127 -1.216 2.2227
                      CHANNELS 3 Zrotation Xrotation Yrotation
                      End Site
                      {
                        OFFSET -0.0181 -0.0122 0.0222
                      }
                    }
                  }
                }
                JOINT rCarpal1
                {
                  OFFSET -0.9571 1.114 1.7695
                  CHANNELS 3 Zrotation Xrotation Yrotation
                  JOINT rIndex1
                  {
                    OFFSET -4.1246 0.487 4.1451
                    CHANNELS 3 Zrotation Xrotation Yrotation
                    JOINT rIndex2
                    {
                      OFFSET -3.4052 -1.454 2.7682
                      CHANNELS 3 Zrotation Xrotation Yrotation
                      JOINT rIndex2_End
                      {
                        OFFSET -1.4531 -1.795 1.2713
                        CHANNELS 3 Zrotation Xrotation Yrotation
                        End Site
                        {
                          OFFSET -0.0145 -0.018 0.0127
                        }
                      }
                    }
                  }
                  JOINT rMid1
                  {
                    OFFSET -5.6954 0.21 2.1184
                    CHANNELS 3 Zrotation Xrotation Yrotation
                    JOINT rMid2
                    {
                      OFFSET -3.9766 -1.54 2.3863
                      CHANNELS 3 Zrotation Xrotation Yrotation
                      JOINT rMid2_End
                      {
                        OFFSET -1.4042 -1.926 1.125
                        CHANNELS 3 Zrotation Xrotation Yrotation
                        End Site
                        {
                          OFFSET -0.014 -0.0193 0.0113
                        }
                      }
                    }
                  }
                }
                JOINT rCarpal2
                {
                  OFFSET -2.0956 0.66 -0.3894
                  CHANNELS 3 Zrotation Xrotation Yrotation
                  JOINT rRing1
                  {
                    OFFSET -5.0395 -0.09 2.4971
                    CHANNELS 3 Zrotation Xrotation Yrotation
                    JOINT rRing2
                    {
                      OFFSET -3.7921 -1.552 1.4806
                      CHANNELS 3 Zrotation Xrotation Yrotation
                      JOINT rRing2_End
                      {
                        OFFSET -1.4655 -1.808 0.9609
                        CHANNELS 3 Zrotation Xrotation Yrotation
                        End Site
                        {
                          OFFSET -0.0147 -0.0181 0.0096
                        }
                      }
                    }
                  }
                  JOINT rPinky1
                  {
                    OFFSET -4.9141 -1.269 0.3592
                    CHANNELS 3 Zrotation Xrotation Yrotation
                    JOINT rPinky2
                    {
                      OFFSET -3.1477 -1.685 0.8462
                      CHANNELS 3 Zrotation Xrotation Yrotation
                      JOINT rPinky2_End
                      {
                        OFFSET -0.8055 -1.585 0.7955
                        CHANNELS 3 Zrotation Xrotation Yrotation
                        End Site
                        {
                          OFFSET -0.0081 -0.0158 0.008
                        }
                      }
                    }
                  }
                }
              }
            }
          }
        }
      }
    }
  }
  JOINT lThigh
  {
    OFFSET 8.367 -8.2066 0.5982
    CHANNELS 3 Zrotation Xrotation Yrotation
    JOINT lShin
    {
      OFFSET 2.1923 -43.463 -0.4932
      CHANNELS 3 Zrotation Xrotation Yrotation
      JOINT lFoot
      {
        OFFSET 0.7333 -45.8593 -2.6451
        CHANNELS 3 Zrotation Xrotation Yrotation
        End Site
        {
          OFFSET 2.6618 -4.2699 12.3931
        }
      }
    }
  }
  JOINT rThigh
  {
    OFFSET -8.367 -8.2066 0.5982
    CHANNELS 3 Zrotation Xrotation Yrotation
    JOINT rShin
    {
      OFFSET -2.1923 -43.463 -0.4931
      CHANNELS 3 Zrotation Xrotation Yrotation
      JOINT rFoot
      {
        OFFSET -0.7333 -45.8593 -2.6451
        CHANNELS 3 Zrotation Xrotation Yrotation
        End Site
        {
          OFFSET -2.6618 -4.2699 12.3931
        }
      }
    }
  }
}
MOTION
Frames:	6
Frame Time:	0.0333333
-13.8308 40.8556 83.3389 0 71.3066 -0 -0.399494 5.74161 -0.163811 -0.788378 11.4842 -0.289344 -0.788378 11.4842 -0.289344 0.352948 -9.56473 0.0574628 0.270982 -38.1716 0.162625 -8.94599 -5.8789 -11.1867 -75.8174 -16.6373 -62.7728 47.3321 30.2868 -36.9358 41.5346 -9.63585 7.79482 -1.59028e-015 3.18055e-015 3.18055e-015 1.58901e-030 9.54166e-015 -9.54166e-015 0 3.18055e-015 -0 -1.59028e-015 0 3.18055e-015 -6.36111e-015 3.18055e-015 -3.18055e-015 3.18055e-015 0 -3.18055e-015 -3.18055e-015 0 6.36111e-015 -6.36111e-015 3.18055e-015 -3.18055e-015 3.18055e-015 0 -3.18055e-015 -3.18055e-015 0 6.36111e-015 -1.59028e-015 0 3.18055e-015 -6.36111e-015 3.18055e-015 -3.18055e-015 3.18055e-015 0 -3.18055e-015 -3.18055e-015 0 6.36111e-015 -6.36111e-015 3.18055e-015 -3.18055e-015 3.18055e-015 0 -3.18055e-015 -3.18055e-015 0 6.36111e-015 7.80572 -5.00428 14.0989 73.8477 -18.2648 61.4041 -48.4442 26.626 28.2678 -36.5086 -8.74323 -6.94881 1.57309e-006 -4.93272e-007 3.93624e-007 -1.57309e-006 4.93272e-007 -3.93624e-007 1.57309e-006 -4.93272e-007 3.93624e-007 1.59028e-015 6.36111e-015 -3.18055e-015 1.57309e-006 -4.93272e-007 3.93624e-007 -1.57309e-006 4.93272e-007 -3.93624e-007 1.57309e-006 -4.93272e-007 3.93624e-007 1.57309e-006 -4.93272e-007 3.93624e-007 -1.57309e-006 4.93272e-007 -3.93624e-007 1.57309e-006 -4.93272e-007 3.93624e-007 1.59028e-015 6.36111e-015 -3.18055e-015 1.57309e-006 -4.93272e-007 3.93624e-007 -1.57309e-006 4.93272e-007 -3.93624e-007 1.57309e-006 -4.93272e-007 3.93624e-007 1.57309e-006 -4.93272e-007 3.93624e-007 -1.57309e-006 4.93272e-007 -3.93624e-007 1.57309e-006 -4.93272e-007 3.93624e-007 144.349 -69.6697 126.34 -164.129 62.158 173.306 26.4706 18.188 -5.58052 -145.243 -70.2593 -126.788 164.308 62.1675 -173.492 -25.6138 18.28 5.17925 
-13.8308 40.8556 83.3389 0 71.3066 -0 -0.399534 5.74161 -0.16382 -0.788459 11.4842 -0.289357 -0.78846 11.4842 -0.289357 0.353065 -9.56471 0.057462 0.270556 -38.1716 0.162516 -8.94599 -5.8789 -11.1867 -75.8174 -16.6373 -62.7728 47.3321 30.2869 -36.9358 41.5346 -9.63585 7.79481 5.09632e-007 -1.58287e-006 -2.71546e-007 0 0 -3.18055e-015 -1.07324e-006 -2.0925e-006 -5.48641e-007 -1.59028e-015 0 -0 5.09632e-007 -1.58287e-006 -2.71546e-007 -3.18055e-015 0 -3.18055e-015 -1.07324e-006 -2.0925e-006 -5.48641e-007 5.09632e-007 -1.58287e-006 -2.71546e-007 -3.18055e-015 0 -3.18055e-015 -1.07324e-006 -2.0925e-006 -5.48641e-007 -1.59028e-015 0 -0 5.09632e-007 -1.58287e-006 -2.71546e-007 -3.18055e-015 0 -3.18055e-015 -1.07324e-006 -2.0925e-006 -5.48641e-007 5.09632e-007 -1.58287e-006 -2.71546e-007 -3.18055e-015 0 -3.18055e-015 -1.07324e-006 -2.0925e-006 -5.48641e-007 7.80571 -5.00426 14.0989 73.8477 -18.2648 61.4042 -48.4442 26.626 28.2678 -36.5086 -8.74323 -6.94881 2.06636e-006 1.07981e-006 1.86615e-007 -3.18055e-015 6.36111e-015 3.18055e-015 -4.77083e-015 3.18055e-015 3.18055e-015 -3.18055e-015 -3.18055e-015 6.36111e-015 2.06636e-006 1.07981e-006 1.86615e-007 -6.36111e-015 6.36111e-015 -0 -1.11319e-014 9.54166e-015 3.18055e-015 2.06636e-006 1.07981e-006 1.86615e-007 -6.36111e-015 6.36111e-015 -0 -1.11319e-014 9.54166e-015 3.18055e-015 -3.18055e-015 -3.18055e-015 6.36111e-015 2.06636e-006 1.07981e-006 1.86615e-007 -6.36111e-015 6.36111e-015 -0 -1.11319e-014 9.54166e-015 3.18055e-015 2.06636e-006 1.07981e-006 1.86615e-007 -6.36111e-015 6.36111e-015 -0 -1.11319e-014 9.54166e-015 3.18055e-015 144.349 -69.6697 126.34 -164.129 62.158 173.306 26.4706 18.188 -5.58052 -145.243 -70.2593 -126.788 164.308 62.1675 -173.492 -25.6138 18.28 5.17925 
-13.8308 40.8556 83.3389 0 71.3066 -0 -0.399837 5.63736 -0.1618 -0.789364 11.2757 -0.285934 -0.789363 11.2756 -0.285934 0.355078 -10.437 0.0632329 0.266685 -37.2429 0.159757 -9.111 -5.53657 -11.0889 -75.8174 -16.6373 -62.7728 47.3321 30.2869 -36.9358 41.4424 -9.45197 7.65162 -1.59028e-015 0 1.27222e-014 1.59028e-015 0 3.18055e-015 -1.59028e-015 0 9.54166e-015 -0 0 3.18055e-015 -3.18055e-015 6.36111e-015 6.36111e-015 3.18055e-015 -6.36111e-015 -0 4.77083e-015 -3.18055e-015 6.36111e-015 -3.18055e-015 6.36111e-015 6.36111e-015 3.18055e-015 -6.36111e-015 -0 4.77083e-015 -3.18055e-015 6.36111e-015 -0 0 3.18055e-015 -3.18055e-015 6.36111e-015 6.36111e-015 3.18055e-015 -6.36111e-015 -0 4.77083e-015 -3.18055e-015 6.36111e-015 -3.18055e-015 6.36111e-015 6.36111e-015 3.18055e-015 -6.36111e-015 -0 4.77083e-015 -3.18055e-015 6.36111e-015 7.97265 -4.68634 13.9775 73.8477 -18.2648 61.4041 -48.4442 26.626 28.2678 -36.4304 -8.5354 -6.79309 4.77083e-015 -3.18055e-015 6.36111e-015 1.59028e-015 -3.18055e-015 1.27222e-014 7.95139e-015 -6.36111e-015 6.36111e-015 0 0 -3.18055e-015 4.77083e-015 -6.36111e-015 1.27222e-014 6.36111e-015 -3.18055e-015 1.27222e-014 7.95139e-015 -3.18055e-015 9.54166e-015 4.77083e-015 -6.36111e-015 1.27222e-014 6.36111e-015 -3.18055e-015 1.27222e-014 7.95139e-015 -3.18055e-015 9.54166e-015 0 0 -3.18055e-015 4.77083e-015 -6.36111e-015 1.27222e-014 6.36111e-015 -3.18055e-015 1.27222e-014 7.95139e-015 -3.18055e-015 9.54166e-015 4.77083e-015 -6.36111e-015 1.27222e-014 6.36111e-015 -3.18055e-015 1.27222e-014 7.95139e-015 -3.18055e-015 9.54166e-015 144.349 -69.6697 126.34 -164.129 62.158 173.306 26.4706 18.188 -5.58052 -145.243 -70.2593 -126.788 164.308 62.1675 -173.492 -25.6138 18.28 5.17925 
-13.8308 40.8556 83.3389 0 71.3066 -0 -0.400069 5.55186 -0.160146 -0.790068 11.1048 -0.283133 -0.790068 11.1047 -0.283134 0.356888 -11.1491 0.0679896 0.263976 -36.4823 0.155591 -9.24636 -5.25668 -11.0081 -75.8174 -16.6374 -62.7728 47.3321 30.2869 -36.9358 41.3672 -9.30133 7.53474 -5.55591e-007 -5.39227e-007 3.16618e-006 6.06546e-007 -5.42315e-007 -4.57181e-006 1.27222e-014 0 6.36111e-015 -3.18055e-015 -3.18055e-015 -0 -5.55591e-007 -5.39227e-007 3.16618e-006 6.06546e-007 -5.42315e-007 -4.57181e-006 1.11319e-014 0 9.54166e-015 -5.55591e-007 -5.39227e-007 3.16618e-006 6.06546e-007 -5.42315e-007 -4.57181e-006 1.11319e-014 0 9.54166e-015 -3.18055e-015 -3.18055e-015 -0 -5.55591e-007 -5.39227e-007 3.16618e-006 6.06546e-007 -5.42315e-007 -4.57181e-006 1.11319e-014 0 9.54166e-015 -5.55591e-007 -5.39227e-007 3.16618e-006 6.06546e-007 -5.42315e-007 -4.57181e-006 1.11319e-014 0 9.54166e-015 8.10967 -4.42649 13.8775 73.8477 -18.2648 61.4042 -48.4442 26.626 28.2678 -36.3669 -8.36519 -6.66594 -3.18055e-015 1.27222e-014 -0 1.59028e-015 6.36111e-015 -0 0 9.54166e-015 -0 0 6.36111e-015 -0 1.59028e-015 1.27222e-014 9.54166e-015 1.59028e-015 9.54166e-015 6.36111e-015 1.59028e-015 9.54166e-015 -3.18055e-015 1.59028e-015 1.27222e-014 9.54166e-015 1.59028e-015 9.54166e-015 6.36111e-015 1.59028e-015 9.54166e-015 -3.18055e-015 0 6.36111e-015 -0 1.59028e-015 1.27222e-014 9.54166e-015 1.59028e-015 9.54166e-015 6.36111e-015 1.59028e-015 9.54166e-015 -3.18055e-015 1.59028e-015 1.27222e-014 9.54166e-015 1.59028e-015 9.54166e-015 6.36111e-015 1.59028e-015 9.54166e-015 -3.18055e-015 144.349 -69.6697 126.34 -164.129 62.158 173.306 26.4706 18.188 -5.58052 -145.243 -70.2593 -126.788 164.308 62.1675 -173.492 -25.6138 18.28 5.17925 
-13.8308 40.8556 83.3389 0 71.3066 -0 -0.400282 5.46631 -0.158488 -0.790732 10.9336 -0.280332 -0.790731 10.9335 -0.280333 0.358802 -11.8635 0.0727629 0.261436 -35.7212 0.15108 -9.38207 -4.97694 -10.9267 -75.8174 -16.6373 -62.7728 47.3321 30.2869 -36.9358 41.2924 -9.15053 7.41807 -1.59028e-015 -3.18055e-015 6.36111e-015 -3.18055e-015 -3.18055e-015 1.27222e-014 1.59028e-015 -3.18055e-015 1.59028e-014 0 0 -3.18055e-015 1.59028e-015 0 6.36111e-015 1.05934e-030 -6.36111e-015 9.54166e-015 -1.59028e-015 3.18055e-015 -0 1.59028e-015 0 6.36111e-015 1.05934e-030 -6.36111e-015 9.54166e-015 -1.59028e-015 3.18055e-015 -0 0 0 -3.18055e-015 1.59028e-015 0 6.36111e-015 1.05934e-030 -6.36111e-015 9.54166e-015 -1.59028e-015 3.18055e-015 -0 1.59028e-015 0 6.36111e-015 1.05934e-030 -6.36111e-015 9.54166e-015 -1.59028e-015 3.18055e-015 -0 8.24711 -4.16686 13.7769 73.8477 -18.2648 61.4041 -48.4442 26.626 28.2678 -36.3038 -8.19482 -6.53905 2.98754e-008 1.66425e-006 -1.56818e-006 -2.06657e-006 -1.08008e-006 -1.9098e-007 4.93247e-007 1.57332e-006 -2.0354e-007 -3.18055e-015 3.18055e-015 9.54166e-015 2.98754e-008 1.66425e-006 -1.56818e-006 -2.06657e-006 -1.08008e-006 -1.9098e-007 4.93247e-007 1.57332e-006 -2.0354e-007 2.98754e-008 1.66425e-006 -1.56818e-006 -2.06657e-006 -1.08008e-006 -1.9098e-007 4.93247e-007 1.57332e-006 -2.0354e-007 -3.18055e-015 3.18055e-015 9.54166e-015 2.98754e-008 1.66425e-006 -1.56818e-006 -2.06657e-006 -1.08008e-006 -1.9098e-007 4.93247e-007 1.57332e-006 -2.0354e-007 2.98754e-008 1.66425e-006 -1.56818e-006 -2.06657e-006 -1.08008e-006 -1.9098e-007 4.93247e-007 1.57332e-006 -2.0354e-007 144.349 -69.6697 126.34 -164.129 62.158 173.306 26.4706 18.188 -5.58052 -145.243 -70.2593 -126.788 164.308 62.1675 -173.492 -25.6138 18.28 5.17925 
-13.8308 40.8556 83.3389 0 71.3066 -0 -0.400476 5.38062 -0.156829 -0.791355 10.7622 -0.277532 -0.791354 10.7622 -0.277533 0.360815 -12.577 0.0775649 0.258935 -34.9596 0.146859 -9.51815 -4.69733 -10.8447 -75.8174 -16.6373 -62.7728 47.3321 30.2869 -36.9358 41.218 -8.99958 7.30167 5.09529e-007 -1.58329e-006 -2.67927e-007 5.64235e-007 3.67612e-006 8.14232e-007 -1.07376e-006 -2.09282e-006 -5.46305e-007 6.36111e-015 -3.18055e-015 1.27222e-014 5.09529e-007 -1.58329e-006 -2.67927e-007 5.64235e-007 3.67612e-006 8.14232e-007 -1.07376e-006 -2.09282e-006 -5.46305e-007 5.09529e-007 -1.58329e-006 -2.67927e-007 5.64235e-007 3.67612e-006 8.14232e-007 -1.07376e-006 -2.09282e-006 -5.46305e-007 6.36111e-015 -3.18055e-015 1.27222e-014 5.09529e-007 -1.58329e-006 -2.67927e-007 5.64235e-007 3.67612e-006 8.14232e-007 -1.07376e-006 -2.09282e-006 -5.46305e-007 5.09529e-007 -1.58329e-006 -2.67927e-007 5.64235e-007 3.67612e-006 8.14232e-007 -1.07376e-006 -2.09282e-006 -5.46305e-007 8.38499 -3.9074 13.6756 73.8477 -18.2648 61.4041 -48.4442 26.626 28.2678 -36.2411 -8.02433 -6.4124 1.59028e-015 -3.18055e-015 -6.36111e-015 -1.59028e-015 -3.18055e-015 -6.36111e-015 3.18055e-015 -3.18055e-015 -0 1.59028e-015 -3.18055e-015 -6.36111e-015 6.36111e-015 -6.36111e-015 -0 4.77083e-015 3.18055e-015 3.18055e-015 3.18055e-015 3.18055e-015 9.54166e-015 6.36111e-015 -6.36111e-015 -0 4.77083e-015 3.18055e-015 3.18055e-015 3.18055e-015 3.18055e-015 9.54166e-015 1.59028e-015 -3.18055e-015 -6.36111e-015 6.36111e-015 -6.36111e-015 -0 4.77083e-015 3.18055e-015 3.18055e-015 3.18055e-015 3.18055e-015 9.54166e-015 6.36111e-015 -6.36111e-015 -0 4.77083e-015 3.18055e-015 3.18055e-015 3.18055e-015 3.18055e-015 9.54166e-015 144.349 -69.6697 126.34 -164.129 62.158 173.306 26.4706 18.188 -5.58052 -145.243 -70.2593 -126.788 164.308 62.1675 -173.492 -25.6138 18.28 5.17925 
